<?xml version="1.0" encoding="UTF-8"?>
<svg version="1.1" xmlns="http://www.w3.org/2000/svg" width="48" height="48">
<path d="M0 0 C15.84 0 31.68 0 48 0 C48 15.84 48 31.68 48 48 C32.16 48 16.32 48 0 48 C0 32.16 0 16.32 0 0 Z " fill="#FEFEFE" transform="translate(0,0)"/>
<path d="M0 0 C2.05306803 -0.0561216 4.10658673 -0.09588791 6.16015625 -0.12890625 C7.30363525 -0.15283447 8.44711426 -0.1767627 9.62524414 -0.20141602 C16.43147441 0.20480116 21.82992942 3.3887236 26.4375 8.3125 C30.80311706 14.07560921 32.1589466 19.04585182 32.0703125 26.26953125 C32.06016113 27.34436768 32.05000977 28.4192041 32.03955078 29.52661133 C32.02649902 30.34282959 32.01344727 31.15904785 32 32 C27.60343827 32.02465504 23.2069128 32.04283842 18.81030273 32.05493164 C17.31355082 32.05997121 15.81680384 32.06680287 14.32006836 32.07543945 C12.17300193 32.08752159 10.02600038 32.09323191 7.87890625 32.09765625 C5.93866577 32.10551147 5.93866577 32.10551147 3.95922852 32.11352539 C1 32 1 32 0 31 C-0.08790975 28.70848583 -0.10694038 26.41427476 -0.09765625 24.12109375 C-0.0962413 23.4344313 -0.09482635 22.74776886 -0.09336853 22.04029846 C-0.08775479 19.83932199 -0.07520007 17.63844591 -0.0625 15.4375 C-0.05748676 13.94856917 -0.05292355 12.45963676 -0.04882812 10.97070312 C-0.03778093 7.31376925 -0.02050713 3.65689442 0 0 Z " fill="#4D6EF7" transform="translate(4,8)"/>
<path d="M0 0 C1.16313721 0.01353516 2.32627441 0.02707031 3.5246582 0.04101562 C4.84856567 0.06711914 4.84856567 0.06711914 6.19921875 0.09375 C6.22387379 4.49031173 6.24205717 8.8868372 6.25415039 13.28344727 C6.25918996 14.78019918 6.26602162 16.27694616 6.2746582 17.77368164 C6.28674034 19.92074807 6.29245066 22.06774962 6.296875 24.21484375 C6.30473022 26.15508423 6.30473022 26.15508423 6.31274414 28.13452148 C6.19921875 31.09375 6.19921875 31.09375 5.19921875 32.09375 C2.86624442 32.13467937 0.5321665 32.13616723 -1.80078125 32.09375 C-1.87554687 31.04316406 -1.9503125 29.99257813 -2.02734375 28.91015625 C-2.92806609 18.59301466 -4.66759541 11.66898086 -12.67578125 4.53125 C-13.72765625 3.8196875 -13.72765625 3.8196875 -14.80078125 3.09375 C-9.63438886 0.66250652 -5.73832257 -0.08677993 0 0 Z " fill="#A6B6FB" transform="translate(37.80078125,7.90625)"/>
</svg>
