<svg width="152" height="48" xmlns="http://www.w3.org/2000/svg">

 <g>
  <title>Layer 1</title>
  <g>
   <path transform="translate(0 0)" fill="#FEFEFE" d="m0,0c15.84,0 31.68,0 48,0c0,15.84 0,31.68 0,48c-15.84,0 -31.68,0 -48,0c0,-15.84 0,-31.68 0,-48z"/>
   <path transform="translate(4 8)" fill="#4D6EF7" d="m0,0c2.05307,-0.05612 4.10659,-0.09589 6.16016,-0.12891c1.14348,-0.02392 2.28695,-0.04785 3.46508,-0.07251c6.80623,0.40622 12.20469,3.59014 16.81226,8.51392c4.36562,5.76311 5.72145,10.73335 5.63281,17.95703c-0.01015,1.07484 -0.0203,2.14967 -0.03076,3.25708c-0.01305,0.81622 -0.0261,1.63244 -0.03955,2.47339c-4.39656,0.02466 -8.79309,0.04284 -13.1897,0.05493c-1.49675,0.00504 -2.9935,0.01187 -4.49023,0.02051c-2.14707,0.01208 -4.29407,0.01779 -6.44116,0.02222c-1.94024,0.00785 -1.94024,0.00785 -3.91968,0.01587c-2.95923,-0.11353 -2.95923,-0.11353 -3.95923,-1.11353c-0.08791,-2.29151 -0.10694,-4.58573 -0.09766,-6.87891c0.00142,-0.68666 0.00283,-1.37332 0.00429,-2.08079c0.00562,-2.20098 0.01817,-4.40185 0.03087,-6.6028c0.00501,-1.48893 0.00958,-2.97786 0.01367,-4.4668c0.01105,-3.65693 0.02832,-7.31381 0.04883,-10.9707z"/>
   <path transform="translate(37.8008 7.90625)" fill="#A6B6FB" d="m0,0c1.16314,0.01354 2.32627,0.02707 3.52466,0.04102c1.32391,0.0261 1.32391,0.0261 2.67456,0.05273c0.02465,4.39656 0.04284,8.79309 0.05493,13.1897c0.00504,1.49675 0.01187,2.9935 0.02051,4.49023c0.01208,2.14707 0.01779,4.29407 0.02222,6.44116c0.00785,1.94024 0.00785,1.94024 0.01586,3.91968c-0.11352,2.95923 -0.11352,2.95923 -1.11352,3.95923c-2.33298,0.04093 -4.66705,0.04242 -7,0c-0.07477,-1.05059 -0.14953,-2.10117 -0.22656,-3.18359c-0.90073,-10.31715 -2.64026,-17.24118 -10.64844,-24.37891c-1.05188,-0.71156 -1.05188,-0.71156 -2.125,-1.4375c5.16639,-2.43124 9.06246,-3.18053 14.80078,-3.09375z"/>
  </g>
  <text font-weight="bold" xml:space="preserve" text-anchor="start" font-family="Noto Sans JP" font-size="28" id="svg_1" y="34" x="48.5" stroke-width="0" stroke="#000" fill="#ffffff">FinSight</text>
 </g>
</svg>